<svg xmlns="http://www.w3.org/2000/svg" viewBox="0 0 512 512" role="img" aria-label="Rocket Kids">
  <defs>
    <linearGradient id="bg" x1="0" y1="0" x2="1" y2="1">
      <stop offset="0%" stop-color="#102654"/>
      <stop offset="100%" stop-color="#07132b"/>
    </linearGradient>
    <radialGradient id="sun" cx="28%" cy="28%" r="30%">
      <stop offset="0%" stop-color="#ffe385"/>
      <stop offset="100%" stop-color="#ff9f4a"/>
    </radialGradient>
  </defs>
  <rect width="512" height="512" rx="112" fill="url(#bg)"/>
  <circle cx="128" cy="130" r="72" fill="url(#sun)"/>
  <circle cx="410" cy="120" r="28" fill="#7dd8ff"/>
  <circle cx="448" cy="150" r="12" fill="#c7f0ff"/>
  <path d="M320 156l92 92-154 154-92-92z" fill="#ff805a"/>
  <path d="M294 181l62 62-98 98-62-62z" fill="#f5fbff"/>
  <circle cx="287" cy="253" r="23" fill="#55cbff"/>
  <path d="M176 333l57-12-45 45z" fill="#ffd37d"/>
  <path d="M160 352l44-8-34 34z" fill="#ffb455"/>
  <circle cx="380" cy="380" r="36" fill="#2ea1ff"/>
  <path d="M353 384c11-13 26-21 40-24-2 7-4 12-5 16 8 2 14 7 20 14-17 2-34 5-55-6z" fill="#34cb86"/>
</svg>
